PathFileType	4	(X/Y/Z)	Kaydara																																																																																																																									
DataRate	CameraRate	NumFrames	NumMarkers	Units	OrigDataRate	OrigDataStartFrame	OrigNumFrames																																																																																																																					
30	30	5	41	mm	30	79	125																																																																																																																					
Frame#	Time	EMLA_LFHD			EMLA_RFHD			EMLA_LBHD			EMLA_RBHD			EMLA_LFTShould			EMLA_RFTShould			EMLA_LRRShould			EMLA_RRRShould			EMLA_T10			EMLA_STRN			EMLA_TRUN			EMLA_LSHO			EMLA_LUPA			EMLA_LELB			EMLA_LFRM			EMLA_LWRA			EMLA_LWRB			EMLA_LFIN			EMLA_RSHO			EMLA_RUPA			EMLA_RELB			EMLA_RFRM			EMLA_RWRA			EMLA_RWRB			EMLA_RFIN			EMLA_LFWT			EMLA_RFWT			EMLA_LBWT			EMLA_RBWT			EMLA_LTHI			EMLA_LKNE			EMLA_LSHN			EMLA_LANK			EMLA_LHEE			EMLA_LTOE			EMLA_RTHI			EMLA_RKNE			EMLA_RSHN			EMLA_RANK			EMLA_RHEE			EMLA_RTOE		
		X1	Y1	Z1	X2	Y2	Z2	X3	Y3	Z3	X4	Y4	Z4	X5	Y5	Z5	X6	Y6	Z6	X7	Y7	Z7	X8	Y8	Z8	X9	Y9	Z9	X10	Y10	Z10	X11	Y11	Z11	X12	Y12	Z12	X13	Y13	Z13	X14	Y14	Z14	X15	Y15	Z15	X16	Y16	Z16	X17	Y17	Z17	X18	Y18	Z18	X19	Y19	Z19	X20	Y20	Z20	X21	Y21	Z21	X22	Y22	Z22	X23	Y23	Z23	X24	Y24	Z24	X25	Y25	Z25	X26	Y26	Z26	X27	Y27	Z27	X28	Y28	Z28	X29	Y29	Z29	X30	Y30	Z30	X31	Y31	Z31	X32	Y32	Z32	X33	Y33	Z33	X34	Y34	Z34	X35	Y35	Z35	X36	Y36	Z36	X37	Y37	Z37	X38	Y38	Z38	X39	Y39	Z39	X40	Y40	Z40	X41	Y41	Z41
																																																																																																																												
79	2.61	229.14915	1494.534	-589.53968	59.95317	1473.62946	-590.8593	239.39165	1520.90302	-737.67677	46.19803	1500.36942	-740.37582	244.13221	1265.96848	-693.90976	95.24973	1255.50171	-695.64117	231.82386	1367.8241	-815.16068	74.52598	1355.02563	-819.86969	167.38155	1218.67081	-922.02332	171.53818	1186.0466	-682.06833	167.0513	1082.41928	-699.40933	362.59445	1310.9021	-732.72987	447.65835	1191.86508	-845.9816	497.02759	1091.21056	-928.6274	538.66627	998.84895	-1013.9019	505.80219	831.84189	-1089.69238	573.60146	874.66232	-1120.29602	568.43487	803.94608	-1112.87308	-23.48231	1312.38983	-742.5325	-102.75921	1131.80313	-734.77798	-151.27258	995.47569	-738.28445	-138.61415	892.64648	-698.55751	-14.02759	808.01041	-561.18927	-74.82534	754.32487	-596.1552	-67.54708	759.13368	-530.01289	234.42486	898.18108	-785.32227	10.20421	892.69745	-852.32056	267.13354	931.18454	-985.42709	92.98603	947.14127	-1018.61275	317.51026	654.18686	-827.91344	320.69725	510.50652	-665.02892	294.77081	335.8086	-591.92177	292.61948	144.95013	-600.6955	224.98491	50.35333	-633.43922	262.40128	103.13107	-444.87823	70.98629	704.26071	-1110.67528	18.22109	498.69457	-1149.63394	62.80106	288.68137	-1232.0549	47.85242	182.84142	-1383.04413	114.63283	159.58151	-1439.50348	48.79724	62.22201	-1283.16833
80	2.643	238.94434	1506.32095	-521.20735	69.80746	1484.74884	-520.03613	247.42001	1527.061	-670.24811	54.40627	1505.75317	-670.33241	251.10554	1270.04311	-619.94125	101.91849	1264.46381	-617.30179	237.98777	1369.62799	-743.04604	80.19154	1361.21796	-745.26649	169.64064	1218.51746	-844.30717	177.38735	1193.30391	-603.87318	170.67972	1089.29741	-617.22126	369.3042	1311.10092	-662.29225	451.53481	1186.87424	-775.46982	497.65747	1086.32561	-857.21977	537.57648	994.05342	-941.52046	503.07102	826.93443	-1015.60143	570.40176	868.91388	-1048.18039	564.21047	798.31268	-1041.69304	-19.25359	1322.54578	-666.17165	-101.87095	1142.51823	-667.09709	-149.60661	1004.6093	-674.64035	-135.52243	901.5229	-637.04853	-11.90623	816.89186	-499.99519	-70.51614	761.91521	-536.12129	-64.62921	767.06329	-469.49749	238.23156	906.8985	-702.25967	14.95376	891.1853	-768.0098	274.03191	933.15071	-901.87531	96.67771	942.6487	-936.92505	319.51645	651.05812	-752.45972	321.86054	505.74379	-590.48061	289.01117	329.01978	-531.33224	292.86818	141.53916	-566.51611	228.01353	61.98108	-619.80457	254.13342	59.07087	-420.74352	82.6024	695.23682	-1016.55304	14.44358	493.17909	-1055.52353	60.9059	293.52678	-1163.66249	56.84613	213.31078	-1330.87326	128.17424	201.65606	-1379.0123	52.06921	59.17226	-1274.56253
81	2.677	247.21329	1525.0267	-451.28502	78.10281	1502.55493	-448.90629	254.8377	1542.9097	-600.64873	61.94737	1520.57739	-599.56829	256.0651	1285.38239	-546.22158	107.47422	1283.13812	-540.73952	242.56639	1382.06909	-671.26801	84.61964	1376.78467	-670.50087	170.29516	1231.502	-769.02115	181.66761	1210.75249	-527.08874	173.95716	1106.51154	-536.62327	374.17679	1323.21426	-591.2328	452.56805	1189.10606	-697.16164	493.61145	1082.10632	-774.35478	530.74848	986.71822	-854.2141	494.31713	816.57997	-919.67361	561.51299	856.29791	-954.98718	555.19371	786.35742	-945.17311	-14.46339	1339.92233	-588.5405	-98.17146	1159.24232	-597.07493	-143.93485	1021.32675	-616.63521	-131.76809	915.16342	-587.30316	-13.17516	818.46565	-454.90215	-70.41661	765.9214	-496.5189	-66.83806	766.99333	-429.31725	244.79427	925.14862	-624.36913	20.23995	900.21317	-687.40524	273.38978	949.80453	-826.07628	96.97552	950.82878	-857.09549	327.27493	665.92453	-685.77385	326.61934	507.06398	-537.61387	293.42875	322.68341	-498.88638	293.39403	141.43189	-556.64181	227.2456	64.01021	-617.71664	251.1618	57.19192	-418.47595	90.07131	678.72925	-913.59505	9.42283	476.80782	-928.20549	59.1083	294.87698	-1061.84204	70.8089	248.48183	-1241.48232	145.39891	248.86744	-1274.89861	53.91029	77.94535	-1241.97594
82	2.71	252.28077	1545.5806	-380.33302	83.20453	1523.28979	-377.31461	259.21316	1564.57855	-529.42696	66.41208	1542.47406	-527.85786	257.86465	1306.96121	-474.86885	109.30879	1304.82727	-469.35387	245.31458	1401.15372	-601.4489	87.45352	1397.78198	-599.44466	171.16783	1249.95926	-696.52901	182.78919	1232.53738	-454.51332	174.64157	1128.22166	-465.1577	376.72951	1342.09259	-520.60158	451.6996	1194.90967	-615.04047	486.50162	1080.5632	-685.09567	519.69624	977.21603	-756.0051	478.30868	802.1637	-804.3158	545.89844	837.62833	-843.0114	539.53899	769.2601	-825.82603	-12.66866	1360.9465	-517.32605	-91.20653	1179.48524	-531.59615	-136.74942	1041.57959	-560.54451	-128.04202	932.92587	-543.95405	-15.46134	815.4985	-422.14203	-73.07902	771.81442	-472.91695	-71.84372	762.26578	-406.96926	252.44453	947.33231	-550.72693	26.9055	915.15816	-606.35864	271.67416	972.85057	-752.44316	95.54733	963.80821	-779.22523	329.03038	680.40169	-635.81707	325.73326	505.84267	-507.37366	290.47983	318.92368	-482.45522	291.55115	141.00207	-549.26983	227.66277	65.07143	-618.01098	250.36503	57.34082	-419.56306	76.42677	657.06383	-806.74149	5.07815	463.25745	-782.64427	71.94566	303.1049	-928.86215	83.48748	279.27877	-1112.91946	154.48405	291.13251	-1148.64807	84.5703	108.07033	-1127.33543
83	2.743	253.53251	1567.10175	-309.00381	84.74983	1544.02039	-304.64108	259.45658	1588.5759	-457.50538	66.73625	1565.39871	-454.81888	256.89943	1330.63217	-405.49099	109.47672	1329.1066	-399.37946	246.97115	1422.39487	-532.55932	89.36808	1419.41589	-530.83889	173.00222	1270.23804	-625.177	181.85341	1256.09993	-385.02514	173.32054	1151.90453	-396.29704	378.01907	1362.46109	-451.48411	448.31524	1204.09294	-531.70074	478.82072	1080.52109	-590.27748	506.6539	966.79047	-648.10181	456.11389	789.01062	-672.33681	524.45404	816.27342	-715.99716	516.74118	751.90857	-688.4169	-13.41721	1382.28821	-449.77238	-90.09638	1198.12271	-472.93102	-129.97364	1062.81303	-508.48694	-125.61008	953.97476	-505.34515	-20.4248	814.35471	-400.39074	-79.4527	782.76215	-457.92805	-78.33361	760.86029	-395.95791	261.60107	966.8663	-478.07281	33.12436	937.56577	-526.70914	270.52437	994.79019	-679.61929	95.6254	981.8618	-702.35687	328.40427	695.4425	-592.11235	320.02407	505.45189	-491.02501	288.49678	318.14491	-477.76203	290.4434	142.69789	-550.6879	227.78658	65.49965	-619.25816	248.93618	57.84736	-421.06571	67.71267	663.45741	-694.53819	6.75362	470.70858	-630.29907	87.63503	312.39136	-775.00587	92.62325	284.73774	-956.21002	164.20059	300.4739	-1002.15096	111.94402	115.43643	-957.36893
